<svg width="124" height="21" viewBox="0 0 124 21" fill="none" xmlns="http://www.w3.org/2000/svg">
<g clip-path="url(#clip0_4137_867)">
<path d="M9.89867 18.1626C9.35752 18.9856 8.65852 19.617 7.80169 20.0454C6.93358 20.4738 5.93019 20.6993 4.7915 20.6993C3.25822 20.6993 2.07444 20.2596 1.25143 19.3915C0.417142 18.5234 0 17.272 0 15.671C0 14.1716 0.417142 13.0442 1.25143 12.255C2.08571 11.4658 3.44988 10.9359 5.36648 10.6428C5.80617 10.5751 6.38115 10.4962 7.08015 10.406C8.87273 10.1693 9.77466 9.65065 9.77466 8.85018C9.77466 8.20756 9.57173 7.74532 9.17713 7.47474C8.78254 7.19289 8.11736 7.0576 7.18161 7.0576C6.32478 7.0576 5.67088 7.22671 5.21992 7.56494C4.75768 7.90316 4.5322 8.38795 4.5322 9.0193V9.25605H0.563706V8.96293C0.563706 7.33945 1.13869 6.06548 2.27737 5.141C3.41606 4.21652 5.00571 3.75428 7.0125 3.75428C9.22223 3.75428 10.9246 4.1376 12.0971 4.90424C13.2696 5.67088 13.8672 6.77575 13.8672 8.23011V17.2156C13.8672 17.8808 13.9348 18.3768 14.0701 18.6925C14.2054 19.0194 14.4421 19.2675 14.7578 19.4253V20.1356H10.3496C10.2031 19.865 10.1016 19.5606 10.0114 19.2336C9.9325 18.9067 9.8874 18.5459 9.8874 18.1739L9.89867 18.1626ZM9.81976 12.3452C9.13203 12.6721 8.33157 12.9201 7.44092 13.1118C6.53899 13.3035 6.07675 13.4049 6.0542 13.4162C5.31011 13.6304 4.78023 13.8897 4.4871 14.2167C4.19397 14.5323 4.04741 14.972 4.04741 15.5357C4.04741 16.0994 4.23907 16.5842 4.61111 16.9225C4.99443 17.2607 5.50177 17.4411 6.14439 17.4411C7.29435 17.4411 8.18501 17.1141 8.85018 16.4715C9.50408 15.8289 9.83103 14.9495 9.83103 13.8333V12.3452H9.81976ZM17.5651 20.1243V4.31799H21.4885V7.02378C22.0409 5.94146 22.6835 5.141 23.4276 4.63366C24.1717 4.12633 25.0511 3.86702 26.0658 3.86702C26.2349 3.86702 26.3589 3.86702 26.4491 3.86702C26.5393 3.86702 26.6182 3.8783 26.6746 3.88957V8.17374H25.2766C24.1153 8.17374 23.2472 8.47814 22.661 9.07567C22.0747 9.6732 21.7816 10.5751 21.7816 11.7476V20.113H17.5538L17.5651 20.1243ZM36.0208 20.2483C35.6375 20.2483 35.164 20.2709 34.6341 20.2934C34.0929 20.316 33.7547 20.3385 33.6081 20.3385C31.9847 20.3385 30.8798 20.0341 30.2823 19.4253C29.6848 18.8165 29.3916 17.6215 29.3916 15.8401V0H33.5856V4.31799H36.0321V7.29436H33.5856V16.0431C33.5856 16.4602 33.6758 16.7308 33.8674 16.8661C34.0478 17.0014 34.4312 17.069 34.9949 17.069H36.0321V20.2596L36.0208 20.2483ZM38.456 20.1243V4.31799H42.4696V6.06548C43.0559 5.34393 43.721 4.7915 44.4538 4.41946C45.1754 4.04741 45.9871 3.86702 46.8665 3.86702C47.8699 3.86702 48.7155 4.05868 49.4257 4.43073C50.136 4.80278 50.7561 5.38903 51.2747 6.18949C51.8271 5.41158 52.481 4.8366 53.2364 4.442C53.9917 4.05868 54.8373 3.85575 55.7618 3.85575C57.3514 3.85575 58.6141 4.31799 59.5499 5.25374C60.4744 6.18949 60.9479 7.45219 60.9479 9.06439V20.1243H56.7765V9.94377C56.7765 9.17713 56.5622 8.57961 56.1564 8.16246C55.7392 7.74532 55.1755 7.53111 54.4314 7.53111C53.6084 7.53111 52.9545 7.80169 52.4697 8.34285C51.985 8.88401 51.7369 9.61683 51.7369 10.5413V20.1243H47.5993V9.9776C47.5993 9.19968 47.3964 8.60215 46.9905 8.17374C46.5847 7.74532 46.0322 7.53111 45.2994 7.53111C44.4764 7.53111 43.8225 7.80169 43.349 8.34285C42.8642 8.88401 42.6274 9.6281 42.6274 10.5751V20.1356H38.456V20.1243ZM68.0618 12.1986C68.0618 13.7657 68.3888 14.9833 69.0314 15.8289C69.674 16.6857 70.5985 17.1141 71.7823 17.1141C72.9661 17.1141 73.8567 16.6857 74.5106 15.8289C75.1533 14.972 75.4802 13.7657 75.4802 12.1986C75.4802 10.6315 75.1645 9.43644 74.5219 8.57961C73.8793 7.73405 72.9661 7.30563 71.7823 7.30563C70.5985 7.30563 69.674 7.72277 69.0314 8.57961C68.3888 9.42517 68.0618 10.6315 68.0618 12.1986ZM63.7777 12.1986C63.7777 9.57173 64.488 7.50856 65.9198 6.00911C67.3403 4.50965 69.302 3.75428 71.7936 3.75428C74.2852 3.75428 76.2356 4.49837 77.6561 6.00911C79.0879 7.50856 79.7982 9.583 79.7982 12.1986C79.7982 14.8142 79.0879 16.9112 77.6561 18.4106C76.2243 19.9101 74.2739 20.6655 71.7936 20.6655C69.3133 20.6655 67.3403 19.9101 65.9198 18.4106C64.4992 16.9112 63.7777 14.8367 63.7777 12.1986ZM82.6844 20.1356V4.31799H86.822V6.18949C87.4195 5.42285 88.1072 4.84787 88.919 4.46455C89.7194 4.08123 90.6214 3.88957 91.6135 3.88957C93.361 3.88957 94.6688 4.34054 95.5369 5.25374C96.405 6.15567 96.8334 7.51984 96.8334 9.34625V20.1243H92.6056V10.5751C92.6056 9.43644 92.4139 8.6247 92.0306 8.15119C91.6473 7.6664 91.0272 7.41837 90.1591 7.41837C89.1557 7.41837 88.3665 7.7115 87.7916 8.30903C87.2053 8.90656 86.9234 9.71829 86.9234 10.7442V20.1356H82.6956H82.6844ZM107.499 20.2596C107.115 20.2596 106.642 20.2821 106.112 20.3047C105.571 20.3272 105.233 20.3498 105.086 20.3498C103.463 20.3498 102.358 20.0454 101.76 19.4366C101.163 18.8278 100.87 17.6327 100.87 15.8514V0H105.064V4.31799H107.51V7.29436H105.064V16.0431C105.064 16.4602 105.154 16.7308 105.345 16.8661C105.526 17.0014 105.909 17.069 106.473 17.069H107.51V20.2596H107.499ZM119.01 18.1739C118.468 18.9969 117.769 19.6282 116.913 20.0567C116.044 20.4851 115.041 20.7106 113.902 20.7106C112.369 20.7106 111.185 20.2709 110.362 19.4028C109.528 18.5347 109.111 17.2832 109.111 15.6823C109.111 14.1828 109.528 13.0554 110.362 12.2662C111.197 11.4771 112.561 10.9472 114.477 10.654C114.917 10.5864 115.492 10.5075 116.191 10.4173C117.984 10.1805 118.886 9.66192 118.886 8.86146C118.886 8.21883 118.683 7.75659 118.288 7.48602C117.893 7.20416 117.228 7.06887 116.293 7.06887C115.436 7.06887 114.782 7.23799 114.331 7.57621C113.869 7.91443 113.643 8.39922 113.643 9.03057V9.26733H109.686V8.9742C109.686 7.35073 110.261 6.07675 111.4 5.15227C112.538 4.2278 114.128 3.76556 116.135 3.76556C118.344 3.76556 120.047 4.14888 121.219 4.91552C122.392 5.68216 122.989 6.78702 122.989 8.24138V17.2269C122.989 17.892 123.057 18.3881 123.192 18.7038C123.328 19.0307 123.564 19.2787 123.88 19.4366V20.1469H119.472C119.325 19.8763 119.224 19.5719 119.134 19.2449C119.055 18.918 119.01 18.5572 119.01 18.1852V18.1739ZM118.931 12.3564C118.243 12.6834 117.442 12.9314 116.552 13.1231C115.65 13.3147 115.188 13.4162 115.165 13.4275C114.421 13.6417 113.891 13.901 113.598 14.2279C113.305 14.5436 113.158 14.9833 113.158 15.547C113.158 16.1107 113.35 16.5955 113.722 16.9337C114.105 17.272 114.613 17.4523 115.255 17.4523C116.405 17.4523 117.296 17.1254 117.961 16.4828C118.615 15.8401 118.942 14.9608 118.942 13.8446V12.3564H118.931Z" fill="white"/>
</g>
<defs>
<clipPath id="clip0_4137_867">
<rect width="124" height="21" fill="white"/>
</clipPath>
</defs>
</svg>
