<svg xmlns="http://www.w3.org/2000/svg"><symbol id="arrow" viewBox="0 0 14 14"><path d="M2.11635 0.998483C2.11635 0.447212 2.56361 6.03623e-05 3.11486 -2.87994e-05L12.9978 -2.87151e-05C13.2624 8.63563e-05 13.5164 0.105648 13.7035 0.292758C13.8904 0.479816 13.9955 0.733367 13.9956 0.997793V10.8807C13.9956 11.432 13.5484 11.8792 12.9971 11.8792C12.4459 11.8791 11.9986 11.4319 11.9986 10.8807L11.9993 3.40845L1.70341 13.7043C1.31366 14.0941 0.681826 14.0939 0.291955 13.7043C-0.0978926 13.3145 -0.0985828 12.682 0.291264 12.2922L10.5871 1.9963L3.11486 1.997C2.56366 1.99691 2.11643 1.54968 2.11635 0.998483Z"></path></symbol><symbol id="icon-plus" viewBox="0 0 20 20"><path d="M20 8.01887V11.3019H0V8.01887H20ZM11.8637 0V20H8.15631V0H11.8637Z"></path></symbol><symbol id="long-arrow" viewBox="0 0 72 19"><path d="M61.9375 0.287058C62.3312 -0.10023 62.9652 -0.0949566 63.3525 0.298777L71.7129 8.79878C72.0956 9.18792 72.0956 9.81198 71.7129 10.2011L63.3525 18.7011C62.9652 19.0949 62.3312 19.1001 61.9375 18.7128C61.5441 18.3256 61.5388 17.6925 61.9258 17.2988L68.6133 10.4999H1C0.447715 10.4999 0 10.0522 0 9.49995C5.15407e-07 8.94766 0.447715 8.49995 1 8.49995H68.6133L61.9258 1.70112C61.5388 1.30744 61.5441 0.674278 61.9375 0.287058Z"></path></symbol></svg>