<svg xmlns="http://www.w3.org/2000/svg"><symbol id="arrow" viewBox="0 0 14 14"><path d="M2.11635 0.998483C2.11635 0.447212 2.56361 6.03623e-05 3.11486 -2.87994e-05L12.9978 -2.87151e-05C13.2624 8.63563e-05 13.5164 0.105648 13.7035 0.292758C13.8904 0.479816 13.9955 0.733367 13.9956 0.997793V10.8807C13.9956 11.432 13.5484 11.8792 12.9971 11.8792C12.4459 11.8791 11.9986 11.4319 11.9986 10.8807L11.9993 3.40845L1.70341 13.7043C1.31366 14.0941 0.681826 14.0939 0.291955 13.7043C-0.0978926 13.3145 -0.0985828 12.682 0.291264 12.2922L10.5871 1.9963L3.11486 1.997C2.56366 1.99691 2.11643 1.54968 2.11635 0.998483Z"></path></symbol><symbol id="icon-burger" viewBox="0 0 17 12"><path d="M17 10V12H7V10H17ZM17 5V7H0V5H17ZM17 0V2H7V0H17Z"></path></symbol><symbol id="icon-check" viewBox="0 0 15 12"><path d="M13.6865 0.320312L14.0713 0.640625L5.38672 11.0605L0 5.67383L0.707031 4.9668L5.31934 9.5791L13.3027 0L13.6865 0.320312Z"></path></symbol><symbol id="icon-cross" viewBox="0 0 17 17"><path d="M16.2119 1.36262L9.56415 8.01038L16.403 14.8492L14.8493 16.403L8.01044 9.56409L1.36268 16.2119L0.0383495 14.8875L6.68612 8.23977L6.12527e-05 1.55371L1.55377 5.56485e-07L8.23983 6.68606L14.8876 0.0382895L16.2119 1.36262Z"></path></symbol><symbol id="icon-plus" viewBox="0 0 20 20"><path d="M20 8.01887V11.3019H0V8.01887H20ZM11.8637 0V20H8.15631V0H11.8637Z"></path></symbol><symbol id="icon-star" viewBox="0 0 16 16"><path d="M7.61753 1.59959C7.90578 1.49624 8.2256 1.51362 8.50327 1.65135C8.78887 1.79303 8.93449 2.03978 8.99839 2.15428C9.07212 2.2864 9.14745 2.4557 9.21811 2.61424L10.3832 5.23143L13.2347 5.53318C13.4072 5.55139 13.5912 5.57033 13.7396 5.59959C13.8682 5.62495 14.1484 5.68629 14.3714 5.91404C14.6191 6.16713 14.7345 6.52181 14.683 6.87205C14.6365 7.18773 14.4458 7.40296 14.3568 7.499C14.2539 7.6099 14.1155 7.73347 13.9867 7.84959L11.8578 9.76658L12.4525 12.5713C12.4885 12.7411 12.5282 12.922 12.5462 13.0722C12.5618 13.2023 12.5895 13.4879 12.4417 13.7705C12.2775 14.0845 11.9756 14.3031 11.6263 14.3623C11.312 14.4154 11.0489 14.3011 10.93 14.2461C10.7928 14.1825 10.633 14.0896 10.4828 14.0029L7.99936 12.5703L5.51792 14.0029C5.36757 14.0896 5.20699 14.1825 5.06968 14.2461C4.95075 14.3011 4.68773 14.4164 4.37339 14.3633C4.06797 14.3115 3.79889 14.1369 3.62632 13.8838L3.55796 13.7705C3.41024 13.4879 3.43787 13.2023 3.45347 13.0722C3.4715 12.922 3.5112 12.7411 3.54722 12.5713L4.14097 9.76658L2.01304 7.84959C1.88416 7.73344 1.7458 7.6099 1.64292 7.499C1.5539 7.40301 1.36341 7.18833 1.31675 6.87303C1.26524 6.52274 1.3805 6.16714 1.62827 5.91404L1.71421 5.83592C1.91897 5.67118 2.14767 5.62177 2.26011 5.59959C2.40846 5.57033 2.59248 5.55139 2.76499 5.53318L5.61557 5.23143L6.78159 2.61424C6.85226 2.45569 6.92758 2.28641 7.00132 2.15428C7.06521 2.03979 7.21081 1.79304 7.49643 1.65135L7.61753 1.59959Z"></path></symbol><symbol id="long-arrow" viewBox="0 0 72 19"><path d="M61.9375 0.287058C62.3312 -0.10023 62.9652 -0.0949566 63.3525 0.298777L71.7129 8.79878C72.0956 9.18792 72.0956 9.81198 71.7129 10.2011L63.3525 18.7011C62.9652 19.0949 62.3312 19.1001 61.9375 18.7128C61.5441 18.3256 61.5388 17.6925 61.9258 17.2988L68.6133 10.4999H1C0.447715 10.4999 0 10.0522 0 9.49995C5.15407e-07 8.94766 0.447715 8.49995 1 8.49995H68.6133L61.9258 1.70112C61.5388 1.30744 61.5441 0.674278 61.9375 0.287058Z"></path></symbol></svg>