<svg width="64" height="60" viewBox="0 0 64 60" fill="none" xmlns="http://www.w3.org/2000/svg">
<path d="M62.2326 30C62.2326 24.2111 60.982 19.1825 58.4801 14.9144C56.1343 10.8668 52.8825 7.65986 48.7256 5.29404L47.8824 4.83291C43.6051 2.57929 38.6167 1.38176 32.9165 1.24087L31.7667 1.22649C25.5361 1.22649 20.1393 2.42898 15.5767 4.83291L14.7335 5.29405C10.5768 7.65984 7.32593 10.8669 4.98024 14.9144L4.52509 15.7324C2.32622 19.8631 1.2265 24.619 1.2265 30L1.24207 31.0768C1.38867 36.4178 2.63456 41.1125 4.98024 45.1599C7.4822 49.4278 11.0145 52.7632 15.5767 55.1671C19.8542 57.4208 24.8649 58.6183 30.6085 58.7591L31.7667 58.7735C37.9482 58.7735 43.3198 57.571 47.8824 55.1671C52.1597 52.9134 55.5322 49.8197 57.9986 45.8845L58.4801 45.0856C60.8255 41.0384 62.0716 36.3659 62.2182 31.0684L62.2326 30ZM47.1709 30C47.1709 24.6726 45.7612 20.7235 43.101 17.9746L43.0938 17.9674C40.486 15.227 36.7696 13.7861 31.7667 13.7861C26.7646 13.7861 23.0176 15.2265 20.3581 17.9746C17.698 20.7235 16.2882 24.6727 16.2882 30L16.3049 30.9833C16.4642 35.6555 17.7728 39.2051 20.1126 41.7643L20.3581 42.0254C23.0176 44.7735 26.7646 46.2139 31.7667 46.2139L31.7667 47.4404L30.7953 47.4224C26.1689 47.2501 22.4897 45.8288 19.7569 43.1585L19.4766 42.8782C16.7172 40.0267 15.251 36.0755 15.0785 31.0253L15.0617 30C15.0617 24.6293 16.4432 20.4329 19.2059 17.4105L19.4766 17.1218C22.4202 14.0801 26.5173 12.5596 31.7667 12.5596L32.7369 12.5776C37.5203 12.7557 41.2689 14.2702 43.9825 17.1218C46.9261 20.1635 48.3974 24.4562 48.3974 30L48.3806 31.0253C48.2081 36.0757 46.742 40.0267 43.9825 42.8782C41.088 45.9199 37.0161 47.4404 31.7667 47.4404L31.7667 46.2139C36.7696 46.2139 40.486 44.773 43.0938 42.0326L43.101 42.0254C45.7612 39.2765 47.1709 35.3274 47.1709 30ZM63.4435 31.1031C63.2918 36.5764 62.0028 41.4539 59.5413 45.7013C56.9196 50.2248 53.2141 53.7446 48.4549 56.2522C43.6843 58.7658 38.1081 60 31.7667 60C25.7772 60 20.4804 58.9158 15.9097 56.7086L15.0054 56.2522C10.2496 53.7465 6.54413 50.2532 3.92143 45.7791L3.91903 45.7743C1.2924 41.2421 1.88866e-06 35.97 1.31134e-06 30C1.05244e-06 24.077 1.29329 18.8294 3.91903 14.2987C6.54076 9.77512 10.2461 6.25536 15.0054 3.74775C19.7773 1.23352 25.378 -1.10931e-06 31.7667 -1.38857e-06C37.7118 3.98755e-06 42.9839 1.0847 47.5506 3.29141L48.4549 3.74775C53.2141 6.25539 56.9196 9.77514 59.5413 14.2987L59.5401 14.2987C62.1681 18.7839 63.4591 24.0324 63.4591 30L63.4435 31.1031Z" fill="#532CF9"/>
</svg>
