<svg width="58" height="60" viewBox="0 0 58 60" fill="none" xmlns="http://www.w3.org/2000/svg">
<path d="M27.0302 -1.18153e-06C33.7843 -1.47676e-06 39.4966 1.25243 44.1013 3.83399L44.1001 3.83399C48.7215 6.39744 52.2262 9.9529 54.578 14.4928C56.9175 19.0094 58.0457 24.1866 57.9986 29.9892L57.9938 31.0624C57.9027 36.3955 56.7734 41.1947 54.578 45.433C52.2305 49.9648 48.7825 53.5444 44.2615 56.1588L44.252 56.1636C39.6992 58.7447 34.1333 60 27.6142 60C23.1691 60 19.1445 59.358 15.5578 58.0513L14.8468 57.7818C11.3403 56.395 8.41327 54.5199 6.09943 52.1392L5.64485 51.6565L5.63536 51.6469C3.45212 49.1989 2.02373 46.4491 1.37798 43.41L1.25929 42.7979L1.0053 41.3571L16.0824 41.357L16.4016 42.0889C17.0099 43.4802 18.1011 44.6972 19.7688 45.7192C21.3465 46.6392 23.7924 47.1709 27.2498 47.1709L27.2498 48.3974L26.5935 48.3914C23.5814 48.3324 21.2207 47.8598 19.5113 46.9745L19.1552 46.7781C17.3079 45.6497 16.0187 44.2516 15.2895 42.5835L2.45568 42.5835C2.99044 45.6253 4.35209 48.3735 6.53977 50.8264C8.77588 53.2791 11.6925 55.2165 15.2895 56.6391C18.6621 57.9729 22.4838 58.6817 26.7537 58.7651L27.6142 58.7735C33.9826 58.7735 39.3307 57.547 43.6574 55.094C47.7134 52.7484 50.8505 49.6049 53.0694 45.6642L53.5015 44.8653C55.7377 40.548 56.8318 35.5928 56.7832 30C56.8288 24.7108 55.87 20.0036 53.9074 15.8785L53.5015 15.0617C51.405 11.0143 48.3472 7.78559 44.328 5.37669L43.5114 4.90598C39.4096 2.60635 34.3247 1.38464 28.2575 1.24087L27.0302 1.22649C21.6341 1.22652 16.9912 2.06059 13.1021 3.72859C9.26176 5.34749 6.32052 7.60396 4.27874 10.4983C2.28552 13.3928 1.26399 16.705 1.21538 20.4336C1.26403 23.9658 2.16426 27.0814 3.91437 29.7796C5.66449 32.4777 8.16796 34.5877 11.425 36.1085C14.4785 37.4882 18.0876 38.2213 22.2518 38.3076L23.0921 38.316C27.273 38.316 31.0167 37.6283 34.3225 36.2546C37.6283 34.8319 40.4967 32.9189 42.9274 30.515C43.223 30.2285 43.5105 29.9368 43.7915 29.6419C43.7982 29.9296 43.8022 30.2206 43.8022 30.515C43.8022 34.2926 43.2195 37.5065 42.0527 40.1557L41.826 40.6444C40.6581 43.0563 38.9348 44.9292 36.6559 46.263C34.2253 47.6856 31.0901 48.3973 27.2498 48.3974L27.2498 47.1709C30.9513 47.1709 33.8574 46.4834 36.047 45.2018C38.2506 43.9119 39.8766 42.0758 40.9418 39.6574C41.8143 37.6764 42.3499 35.3158 42.5239 32.5548C40.2643 34.5302 37.688 36.1398 34.7996 37.3829L34.7854 37.3889C31.3101 38.833 27.4053 39.5425 23.0921 39.5425C18.7348 39.5424 14.8885 38.877 11.5829 37.5099L10.9289 37.2272L10.9146 37.2212C7.69185 35.7164 5.12556 33.6432 3.26039 30.9893L2.8972 30.4504C1.12696 27.7209 0.17581 24.609 0.0213649 21.1474L0.00118778 20.4504L8.9318e-07 20.4336L0.00118778 20.4168C0.0528662 16.4587 1.14083 12.9061 3.28057 9.79878L3.28887 9.788C5.48345 6.67693 8.61904 4.28991 12.6273 2.59911L13.4 2.28291C17.3064 0.749316 21.859 2.67386e-05 27.0302 -1.18153e-06ZM14.9987 19.9916C14.9988 18.474 15.3834 17.1291 16.1524 15.9564L16.3114 15.724C17.2351 14.4485 18.5718 13.4668 20.3219 12.78C22.1205 12.0442 24.308 11.6757 26.8843 11.6756C30.5304 11.6756 33.5938 12.3873 36.0732 13.81C38.6011 15.2328 40.5217 17.3426 41.8343 20.1389C41.9675 20.4227 42.0909 20.7147 42.2106 21.0121C40.3317 22.8813 38.2619 24.4068 35.9996 25.5851L35.4322 25.8606C32.5809 27.1973 29.5374 27.8656 26.3015 27.8656L26.3015 26.6391C29.5689 26.6391 32.615 25.9213 35.456 24.488C37.3626 23.4933 39.1286 22.2359 40.7578 20.7151C40.75 20.6982 40.7431 20.6803 40.7353 20.6636C39.5999 18.245 37.9908 16.4141 35.9046 15.1312L35.4809 14.882L35.4726 14.876C33.2205 13.5837 30.3772 12.9021 26.8843 12.9021C24.4159 12.9022 22.3923 13.2561 20.7777 13.9166L20.7706 13.9202L20.7623 13.9226C19.1885 14.5403 18.0581 15.3908 17.2966 16.4391C16.5813 17.4416 16.2141 18.6106 16.2141 19.9916L16.2295 20.4659C16.3045 21.5511 16.6412 22.5257 17.2372 23.4136C17.8931 24.3432 18.935 25.1431 20.4655 25.7636C21.9902 26.3328 23.9237 26.6391 26.3015 26.6391L26.3015 27.8656L25.39 27.8512C23.4545 27.7865 21.776 27.5106 20.354 27.0248L20.03 26.9098C18.3285 26.223 17.0643 25.2905 16.2378 24.1131C15.4631 22.9633 15.0519 21.6839 15.0035 20.2755L14.9987 19.9916Z" fill="#532CF9"/>
</svg>
