<svg width="61" height="58" viewBox="0 0 61 58" fill="none" xmlns="http://www.w3.org/2000/svg">
<path d="M59.4359 35.3719L50.3102 35.3719L50.3102 1.22649L32.7225 1.22649L1.2265 35.9612L1.2265 45.748L36.5493 45.748L36.5493 56.4187L50.3102 56.4187L50.3102 45.748L59.4359 45.748L59.4359 35.3719ZM36.5493 35.3719L15.5887 35.3719L36.5493 12.1512L36.5493 35.3719ZM18.3483 34.1454L35.3228 34.1454L35.3228 15.3396L18.3483 34.1454ZM51.5367 34.1454L60.6624 34.1454L60.6624 46.9745L51.5367 46.9745L51.5367 57.6452L35.3228 57.6452L35.3228 46.9745L2.05332e-06 46.9745L1.55123e-06 35.4881L0.317405 35.1371L32.1787 -1.40658e-06L51.5367 -2.25274e-06L51.5367 34.1454Z" fill="#532CF9"/>
</svg>
