<svg width="59" height="60" viewBox="0 0 59 60" fill="none" xmlns="http://www.w3.org/2000/svg">
<path d="M1.31134e-06 30C1.05969e-06 24.2429 1.13718 19.0915 3.44592 14.5766C5.7667 10.0382 9.2267 6.47882 13.7945 3.91184L14.2328 3.6699C18.7908 1.20302 24.2849 -1.06153e-06 30.6624 -1.34029e-06C35.4909 2.23844e-05 39.7933 0.728774 43.5453 2.21823C47.3198 3.69742 50.4301 5.73205 52.8327 8.34351L52.8315 8.34351C55.0913 10.7535 56.5408 13.5112 57.1506 16.6008L57.2619 17.2236L57.4871 18.6429L42.2997 18.6429L41.9763 17.9111C41.4016 16.6087 40.4004 15.48 38.8921 14.5419L38.5843 14.3562L38.5735 14.3502L38.5639 14.3442C36.9776 13.3841 34.5166 12.8291 31.0301 12.8291C27.3529 12.8291 24.4162 13.5115 22.1512 14.797C19.9273 16.087 18.2865 17.9241 17.2116 20.3426L17.2092 20.3509L17.208 20.3509C16.3286 22.2933 15.7866 24.6509 15.6126 27.4488C17.8971 25.4759 20.5028 23.8872 23.4244 22.6842C26.9319 21.1908 30.8725 20.4575 35.2246 20.4575C39.8639 20.4575 43.9404 21.2385 47.4189 22.8435L47.42 22.8435C50.9438 24.398 53.6931 26.6279 55.6055 29.5496L55.6043 29.5496C57.5615 32.4647 58.5279 35.8178 58.528 39.5664C58.528 43.5363 57.4259 47.0992 55.2102 50.212C52.9969 53.3212 49.834 55.7316 45.7911 57.4715L45.7791 57.4763C41.7152 59.1739 36.8598 60 31.2504 60C24.434 59.9999 18.6478 58.7469 13.955 56.1684L13.9502 56.166C9.62205 53.7614 6.26651 50.4848 3.90945 46.3457L3.45071 45.5072L3.44353 45.4917C1.13749 40.9307 1.85183e-06 35.7573 1.31134e-06 30ZM42.1667 40.0084C42.1667 38.8505 41.8856 37.8552 41.3379 36.9877L41.0876 36.6235L41.0768 36.6092L41.0672 36.596C40.4865 35.7763 39.6249 35.0781 38.4166 34.5335L37.8776 34.3095L37.8632 34.3047L37.8488 34.2987C36.3791 33.6935 34.4177 33.3609 31.9128 33.3609C28.8762 33.3609 26.0099 34.0091 23.301 35.3096L22.7476 35.5863C20.8055 36.5574 19.006 37.8058 17.3482 39.3364C17.3503 39.3412 17.3521 39.3461 17.3542 39.3508C18.576 41.9233 20.3396 43.8297 22.6494 45.118C24.9763 46.4157 27.8742 47.0978 31.3978 47.0979L31.3978 48.3243L30.7151 48.316C27.5571 48.2382 24.8308 47.6158 22.5368 46.4487L22.0517 46.19C19.5008 44.7673 17.5636 42.6573 16.2391 39.8611C16.1173 39.5893 16.0019 39.3115 15.8917 39.0286C17.6402 37.3064 19.5541 35.8908 21.6325 34.7814L22.1991 34.4892C25.2407 32.9193 28.4787 32.1344 31.9128 32.1344L32.8662 32.15C35.0395 32.2251 36.8564 32.5635 38.316 33.1644C39.9837 33.8022 41.2346 34.7097 42.0685 35.8869C42.9516 37.0644 43.3932 38.4385 43.3932 40.0084L43.3872 40.3006C43.3327 41.755 42.8691 43.0802 41.9954 44.276C41.1124 45.5515 39.7623 46.5572 37.9471 47.2931C36.1809 47.9799 33.9978 48.3243 31.3978 48.3243L31.3978 47.0979C33.8919 47.0979 35.909 46.7662 37.4895 46.154C39.1394 45.4846 40.272 44.6104 40.9869 43.5777L40.9953 43.5657L41.0049 43.5525C41.7844 42.4857 42.1667 41.3162 42.1667 40.0084ZM1.23967 31.042C1.3691 36.2132 2.46868 40.8451 4.53827 44.9383C6.79495 49.2554 10.1303 52.641 14.5455 55.094C19.0098 57.547 24.5785 58.7735 31.2504 58.7735C36.4019 58.7735 40.8422 58.0621 44.5706 56.6391L45.306 56.3457C48.9394 54.7819 51.7756 52.6787 53.8136 50.0371L54.2113 49.5017C56.2718 46.6072 57.3015 43.295 57.3015 39.5664C57.3014 36.255 56.5037 33.3102 54.9084 30.7318L54.579 30.2204C52.9233 27.6909 50.5776 25.7 47.5422 24.2484L46.9254 23.9657C43.6384 22.4449 39.7381 21.684 35.2246 21.684C31.0055 21.684 27.2275 22.3957 23.8915 23.8184C20.5556 25.1921 17.6607 27.0811 15.2078 29.485C14.9103 29.7706 14.6192 30.0612 14.3347 30.3569C14.328 30.0695 14.3251 29.7788 14.3251 29.485C14.3251 25.6583 14.9143 22.4445 16.0917 19.8443C17.2691 17.1954 19.084 15.1596 21.5367 13.737C24.0388 12.3142 27.2034 11.6026 31.0301 11.6026C34.6114 11.6026 37.3344 12.1666 39.1987 13.295C40.9465 14.3069 42.1977 15.5781 42.9536 17.1074L43.0986 17.4165L56.051 17.4165C55.5604 14.3257 54.1863 11.5775 51.9296 9.17355C49.8139 6.87402 47.0946 5.02689 43.7717 3.63277L43.0986 3.36088C39.7412 2.02713 35.8881 1.31829 31.5391 1.23488L30.6624 1.22649C24.2358 1.22649 18.8146 2.47722 14.3993 4.97904L13.5932 5.45095C9.62636 7.85981 6.60799 11.0874 4.53827 15.1347L4.13702 15.9516C2.19658 20.0738 1.2265 24.7566 1.2265 30L1.23967 31.042Z" fill="#532CF9"/>
</svg>
