<svg width="57" height="59" viewBox="0 0 57 59" fill="none" xmlns="http://www.w3.org/2000/svg">
<path d="M55.1731 38.0213C55.1731 34.44 54.2405 31.3005 52.3763 28.6022C50.6746 26.0266 48.2834 23.9674 45.2018 22.4266L44.5754 22.126C41.1904 20.5072 37.1181 19.697 32.3596 19.697C28.7785 19.697 25.6146 20.1639 22.8674 21.0959L22.3572 21.2744C19.8303 22.1828 17.6699 23.3496 15.8762 24.7754C15.8227 24.8191 15.7709 24.8645 15.7181 24.9084L17.6895 11.6756L50.8312 11.6756L50.8312 1.22649L8.2968 1.22649L3.66032 34.2688L15.5815 34.2688L15.9049 33.9562C16.6829 33.2319 17.63 32.5265 18.746 31.8397C20.0704 31.0549 21.5913 30.4175 23.3082 29.9269C25.0743 29.4363 27.0617 29.1903 29.2694 29.1903L30.2419 29.2083C32.4635 29.2888 34.3475 29.6507 35.8929 30.2946C37.7078 31.0305 39.0571 32.0604 39.9401 33.3848C40.8722 34.7094 41.3379 36.2312 41.3379 37.9483L41.3319 38.2848C41.2716 39.958 40.7587 41.4159 39.7928 42.6578L39.5952 42.9021C38.5804 44.1096 37.1988 45.058 35.451 45.748C33.5867 46.4348 31.3544 46.778 28.7543 46.7781L28.7543 45.5516C31.252 45.5515 33.3332 45.221 35.0269 44.597C36.7135 43.9269 37.9581 43.019 38.825 41.9044C39.6736 40.8133 40.1113 39.5141 40.1114 37.9483C40.1114 36.5601 39.7623 35.3557 39.0777 34.2999L38.9364 34.0915L38.9196 34.0652C38.2466 33.0557 37.2115 32.2081 35.7336 31.5583L35.4318 31.4313L35.421 31.4265C33.85 30.7719 31.8148 30.4168 29.2694 30.4168C27.1544 30.4168 25.2828 30.6503 23.6447 31.1043L23.6459 31.1055C22.0181 31.5706 20.5988 32.1676 19.3796 32.889C18.1688 33.6348 17.198 34.3867 16.4487 35.1359L16.0894 35.4953L2.24937 35.4953L7.22961 -3.16016e-07L52.0577 -2.27552e-06L52.0577 12.9021L18.746 12.9021L17.3506 22.2697C18.8822 21.3501 20.5919 20.5725 22.4733 19.9341C25.3731 18.9503 28.6747 18.4705 32.3596 18.4705C37.2537 18.4705 41.5164 19.3032 45.1048 21.0193C48.6539 22.6675 51.4311 24.9572 53.3848 27.9051C55.4035 30.8271 56.3996 34.2151 56.3996 38.0213L56.3864 38.7711C56.2541 42.4936 55.129 45.8542 53.0051 48.8178C50.7427 51.9746 47.5081 54.4319 43.3705 56.2199L43.3633 56.2223C39.2499 57.9705 34.3683 58.8226 28.7543 58.8226C23.587 58.8226 19.0057 58.1186 15.0341 56.6798L14.2484 56.3816C10.3825 54.8543 7.24098 52.7892 4.87484 50.1593L4.41131 49.6263L4.40532 49.6179C2.15855 46.8827 0.764385 43.8468 0.251529 40.5258L0.1605 39.8575L1.68233e-06 38.4872L16.1708 38.4872L16.4032 39.4167C16.8451 41.1844 18.009 42.6483 20.0767 43.7921C22.1907 44.9341 25.0557 45.5516 28.7543 45.5516L28.7543 46.7781L28.0453 46.7709C24.7772 46.7011 22.0728 46.1429 19.9317 45.0964L19.4814 44.8652C17.1758 43.5897 15.7534 41.8723 15.2138 39.7137L1.37861 39.7137C1.77109 43.0498 3.09599 46.092 5.35274 48.8394C7.60947 51.5375 10.725 53.6715 14.6988 55.2413C18.4242 56.7131 22.7748 57.4945 27.7506 57.5865L28.7543 57.5961C34.2488 57.5961 38.9583 56.7619 42.883 55.094C46.6086 53.4842 49.5156 51.3356 51.6026 48.6477L52.0086 48.1028C53.9863 45.3431 55.0376 42.2171 55.1611 38.7244L55.1731 38.0213Z" fill="#532CF9"/>
</svg>
