<svg width="61" height="60" viewBox="0 0 61 60" fill="none" xmlns="http://www.w3.org/2000/svg">
<path d="M57.9316 16.8272C57.9315 12.0746 55.7204 8.33464 51.2974 5.60786L50.8623 5.34794C46.4439 2.77234 40.1915 1.40307 32.1055 1.24206L30.4634 1.22649C21.6266 1.2265 14.8519 2.60066 10.1389 5.34795L9.70381 5.60786C5.28054 8.33466 3.06849 12.0745 3.0684 16.8272C3.0684 21.2425 5.13044 24.604 9.25434 26.9098C10.8154 27.754 12.6035 28.4232 14.618 28.9172C12.0663 29.3981 9.83611 30.151 7.92869 31.1774C3.46151 33.5322 1.22753 37.2362 1.22736 42.2889C1.22736 47.5874 3.73132 51.6605 8.73894 54.5059C13.7957 57.3514 21.0374 58.7735 30.4634 58.7735C39.69 58.7735 46.7974 57.4386 51.7852 54.7682L52.2611 54.5059C57.2687 51.6605 59.7726 47.5874 59.7726 42.2889C59.7725 37.236 57.5387 33.5322 53.0713 31.1774C51.1593 30.1486 48.9234 29.3943 46.364 28.9136C48.1954 28.4611 49.8343 27.8625 51.2806 27.117L51.6725 26.9098C55.8456 24.604 57.9316 21.2425 57.9316 16.8272ZM44.4798 41.1858C44.4798 40.28 44.2305 39.5484 43.7582 38.934C43.274 38.304 42.4974 37.7232 41.3335 37.2404L41.3251 37.2368L41.3155 37.2332C38.9425 36.2041 35.361 35.6414 30.4634 35.6414C25.5659 35.6414 21.9844 36.2041 19.6114 37.2332L19.6006 37.238C18.4641 37.7186 17.7052 38.2958 17.231 38.9244C16.7675 39.539 16.5202 40.2744 16.5202 41.1858L16.5322 41.5092C16.5852 42.248 16.8228 42.8796 17.2358 43.4351C17.718 44.0837 18.4872 44.6919 19.6294 45.2198C21.9958 46.2905 25.5697 46.8763 30.4634 46.8763L30.4634 48.1028C25.8149 48.1028 22.202 47.5853 19.6246 46.5505L19.1224 46.3373C16.7292 45.2335 15.4581 43.6549 15.3084 41.6026L15.2929 41.1858C15.2929 39.0241 16.4148 37.4006 18.6585 36.3169L19.1224 36.1085C21.7243 34.9801 25.5049 34.4149 30.4634 34.4149C35.422 34.4149 39.2025 34.9801 41.8045 36.1085C44.4063 37.1878 45.7072 38.8801 45.7072 41.1858L45.6916 41.6026C45.539 43.6549 44.2438 45.2335 41.8045 46.3373L41.3023 46.5505C38.7249 47.5853 35.112 48.1028 30.4634 48.1028L30.4634 46.8763C35.3571 46.8763 38.9311 46.2905 41.2975 45.2198C42.4706 44.689 43.2601 44.0767 43.7534 43.4256C44.2343 42.7909 44.4798 42.0604 44.4798 41.1858ZM42.8593 18.2261C42.8593 17.4789 42.6477 16.8524 42.2276 16.3014C41.8487 15.8043 41.2658 15.3236 40.4202 14.888L40.0414 14.7048L40.027 14.6976L40.0126 14.6916C37.9533 13.6845 34.8113 13.1237 30.4634 13.1237C26.1699 13.1237 23.0201 13.6822 20.9047 14.6952L20.8855 14.7048C19.832 15.1873 19.1323 15.7333 18.6993 16.3014C18.2792 16.8524 18.0676 17.4789 18.0676 18.2261L18.0844 18.6022C18.165 19.4559 18.5292 20.1909 19.2146 20.8504C20.0924 21.5983 21.4189 22.2348 23.2899 22.6937C25.2413 23.1109 27.6271 23.3273 30.4634 23.3273L30.4634 24.5538C27.9289 24.5538 25.7139 24.3852 23.8184 24.0472L23.0262 23.8915C21.0135 23.4009 19.4665 22.6903 18.3864 21.7583C17.42 20.8385 16.9067 19.7459 16.8462 18.4813L16.8402 18.2261C16.8402 16.2147 18.0184 14.669 20.3749 13.5897C22.7314 12.4613 26.0942 11.8972 30.4634 11.8972L31.2797 11.9032C35.2981 11.9693 38.3888 12.5319 40.552 13.5897C42.9085 14.669 44.0867 16.2147 44.0867 18.2261L44.0807 18.4813C44.0202 19.7459 43.5069 20.8385 42.5405 21.7583C41.5095 22.6903 39.9625 23.4009 37.9007 23.8915C35.8879 24.333 33.4089 24.5538 30.4634 24.5538L30.4634 23.3273C33.3478 23.3273 35.7278 23.1105 37.6238 22.6961C39.5687 22.2326 40.8869 21.5923 41.705 20.8576C42.4943 20.1014 42.8592 19.2456 42.8593 18.2261ZM59.159 16.8272C59.159 19.2358 58.5875 21.4094 57.4102 23.3058C56.2357 25.1975 54.4986 26.7493 52.2659 27.983L52.2623 27.9854C51.7437 28.2692 51.2016 28.532 50.6382 28.7771C51.71 29.154 52.7162 29.5925 53.6538 30.097L53.6526 30.097C56.0463 31.3603 57.8993 33.0174 59.1482 35.088C60.3984 37.1612 60.9999 39.5775 61 42.2889C61 48.0731 58.2184 52.5314 52.8675 55.5719C47.5912 58.5699 40.0766 60 30.4634 60C21.2414 60 13.9279 58.6563 8.64186 55.8498L8.13725 55.5743L8.13246 55.5719C2.78163 52.5314 2.10134e-06 48.0731 1.84851e-06 42.2889C8.66476e-05 39.5775 0.601583 37.1612 1.85183 35.088C3.10064 33.0174 4.95383 31.3604 7.34738 30.097L7.79925 29.8623C8.59625 29.46 9.43987 29.1022 10.3295 28.7879C9.90464 28.6053 9.49151 28.4134 9.09133 28.2094L8.67062 27.9878L8.65504 27.9794C4.17667 25.4753 1.84104 21.7232 1.84104 16.8272C1.84113 11.4295 4.48107 7.22549 9.52043 4.28794C14.5036 1.38329 21.5303 4.1186e-06 30.4634 -1.3316e-06C39.1636 -1.7119e-06 46.054 1.2973 51.0073 4.01964L51.4808 4.28794C56.5201 7.22549 59.1589 11.4295 59.159 16.8272Z" fill="#532CF9"/>
</svg>
