<svg width="58" height="59" viewBox="0 0 58 59" fill="none" xmlns="http://www.w3.org/2000/svg">
<path d="M56.1385 46.5577L23.7058 46.5577L32.8099 41.7739C37.6849 39.2904 41.6765 36.9368 44.7838 34.7119L45.3935 34.2688C48.5823 31.9139 50.9129 29.5581 52.3847 27.2033C53.7646 24.9494 54.4976 22.5233 54.5838 19.9245L54.5922 19.4035C54.5922 16.0459 53.6652 13.0546 51.811 10.43L51.4277 9.91017C49.4501 7.33468 46.7613 5.29807 43.3609 3.80045L42.671 3.5082C39.1755 2.08241 35.1196 1.324 30.5031 1.23488L29.5724 1.22649C24.323 1.22649 19.6126 2.08456 15.4426 3.80165C11.3218 5.46961 8.01042 7.87371 5.50844 11.0133C3.00651 14.1039 1.60838 17.7838 1.31393 22.0517L15.1491 22.0517L15.1898 21.714C15.4044 20.1417 15.9193 18.6819 16.7349 17.335L16.9146 17.0487C17.8345 15.6229 19.2071 14.4765 21.0325 13.6112L21.4038 13.4423C23.4152 12.5102 25.9666 12.0446 29.0574 12.0446L30.012 12.0601C32.1901 12.1353 34.0301 12.4738 35.5324 13.0746C37.2494 13.7614 38.5252 14.718 39.3592 15.9444C40.2423 17.1709 40.6839 18.569 40.6839 20.1389C40.6839 21.6598 40.2423 23.0831 39.3592 24.4077L39.1867 24.6568C38.2841 25.9131 36.8208 27.2777 34.797 28.7495C32.6874 30.2704 29.7434 32.1102 25.966 34.2688L2.27093 47.8824L2.27093 57.5961L56.1385 57.5961L56.1385 46.5577ZM55.8103 19.9677C55.7167 22.7791 54.921 25.4112 53.4315 27.844L53.4256 27.8536C51.8451 30.3823 49.3868 32.8442 46.1229 35.2545C42.8609 37.6634 38.602 40.2004 33.3669 42.8674L28.6765 45.3312L57.365 45.3312L57.365 58.8226L1.04444 58.8226L1.04444 47.1721L25.3551 33.2052L25.3575 33.2028C29.1188 31.0535 32.0204 29.2387 34.0795 27.7542C36.1866 26.2214 37.5729 24.8759 38.3387 23.7274C39.0941 22.5943 39.4574 21.406 39.4574 20.1389C39.4574 18.8156 39.0906 17.67 38.3639 16.6607L38.3543 16.6475L38.3459 16.6343C37.763 15.7771 36.8815 15.0397 35.6342 14.4544L35.0773 14.2137C33.5511 13.6032 31.56 13.2711 29.0574 13.271C26.0793 13.271 23.7192 13.7214 21.92 14.555L21.908 14.5598L21.8972 14.5658C20.0585 15.3731 18.7711 16.4344 17.9459 17.7135C17.0692 19.0723 16.5443 20.5577 16.3684 22.1847L16.2499 23.2782L1.01752e-06 23.2782L0.0898321 21.9679C0.400146 17.4684 1.88218 13.5437 4.55504 10.2419C7.20016 6.92537 10.6868 4.4045 14.9754 2.66738C19.3159 0.88014 24.1887 -1.05732e-06 29.5724 -1.29265e-06C34.3775 2.11243e-05 38.659 0.684434 42.3943 2.08288L43.1345 2.37154C46.7877 3.86165 49.747 5.93789 51.9667 8.61899L52.4015 9.16277C54.6815 12.1321 55.8187 15.5619 55.8187 19.4035L55.8103 19.9677Z" fill="#532CF9"/>
</svg>
