<svg width="58" height="60" viewBox="0 0 58 60" fill="none" xmlns="http://www.w3.org/2000/svg">
<path d="M16.1864 38.3399L16.3385 39.3903C16.6769 41.7164 17.8328 43.4845 19.8754 44.7682C22.0074 46.0284 25.2101 46.7289 29.6227 46.7289L29.6227 47.9554L28.7879 47.9471C24.9539 47.8692 21.9277 47.2469 19.7089 46.0798L19.2466 45.8223C16.8917 44.3505 15.5176 42.2647 15.1252 39.5664L1.28998 39.5664C1.48622 43.4421 2.73791 46.8276 5.04372 49.7221C7.39854 52.5674 10.6606 54.7998 14.8305 56.4187C18.7859 57.8905 23.3666 58.6719 28.5723 58.7639L29.6227 58.7735C35.0496 58.7735 39.7005 58.1266 43.5753 56.8331L44.3406 56.5661C48.4124 55.0452 51.5029 53.0086 53.6124 50.4575C55.59 48.02 56.6412 45.2593 56.7649 42.1751L56.7769 41.5535C56.7768 38.702 55.979 36.3034 54.3838 34.3574L54.0544 33.9741C52.2392 31.9627 49.6386 30.4902 46.2534 29.558C45.5127 29.3541 44.74 29.1798 43.9358 29.0322C44.5562 28.879 45.1512 28.7103 45.7192 28.5208L46.3265 28.3076C49.5152 27.0811 51.846 25.462 53.3178 23.4507C54.7437 21.5188 55.5009 19.3927 55.5899 17.0727L55.5995 16.6068C55.5995 13.7091 54.6941 11.1777 52.883 9.01305L52.5081 8.58546C50.4477 6.27988 47.5537 4.48905 43.8256 3.21356C40.3762 1.97178 36.3227 1.31134 31.6661 1.23368L30.7258 1.22649C24.9369 1.22652 19.9815 2.08458 15.8606 3.80165C11.7887 5.46968 8.64915 7.7271 6.44149 10.5725L6.03905 11.1091C4.08418 13.8142 2.99198 16.8002 2.76201 20.0659L16.5972 20.0659L16.6894 19.5856C17.2067 17.2196 18.5005 15.3926 20.5701 14.1047C22.8269 12.731 25.9675 12.0446 29.9904 12.0446L30.7055 12.0505C34.2239 12.1167 36.8804 12.6791 38.6741 13.737C40.6361 14.8653 41.6168 16.4594 41.617 18.5196C41.617 20.3839 40.7829 21.9056 39.1149 23.083C37.5511 24.1406 34.9312 24.7021 31.2552 24.7682L30.5054 24.7754L30.5054 23.5489C34.5324 23.5489 37.0761 22.9763 38.4214 22.0697C39.7901 21.0985 40.3905 19.9381 40.3905 18.5196C40.3903 16.9484 39.6893 15.735 38.062 14.7994L38.0513 14.7934C36.4199 13.8313 33.789 13.2711 29.9904 13.271C26.0838 13.271 23.1965 13.9407 21.2073 15.1515C19.3091 16.3363 18.1887 18.0152 17.8057 20.2707L17.6321 21.2924L1.44568 21.2924L1.53911 19.9796C1.80202 16.2463 3.12095 12.8512 5.47251 9.82034C7.83674 6.77316 11.1654 4.40095 15.3887 2.66978C19.6963 0.874933 24.8208 2.26336e-05 30.7258 -1.34307e-06C35.8811 -1.56841e-06 40.3949 0.674764 44.24 2.05893L44.2388 2.05893C48.1003 3.38236 51.1845 5.26714 53.4148 7.75901C55.6839 10.2445 56.826 13.2141 56.826 16.6068L56.8164 17.123C56.7172 19.6914 55.8733 22.0506 54.3071 24.1741C52.8918 26.1084 50.8141 27.6582 48.1567 28.8681C50.763 29.7777 52.92 31.0574 54.5778 32.7416L54.9647 33.1525C57.0084 35.4173 58.0033 38.2484 58.0034 41.5535L57.9902 42.2278C57.8552 45.5756 56.7077 48.5885 54.5646 51.2301L54.5574 51.2397C52.2746 54.0001 48.9812 56.1416 44.7694 57.7147L44.761 57.7183C40.5652 59.2532 35.5078 60 29.6227 60C24.2297 60 19.4261 59.297 15.233 57.8644L14.4029 57.5686L14.3874 57.5626C10.3332 55.9886 7.04646 53.8313 4.58019 51.0648L4.0987 50.5042L4.09151 50.4947L4.08432 50.4863C1.76529 47.5752 0.445104 44.1994 0.117381 40.3953L0.0658779 39.6287L1.67589e-06 38.3399L16.1864 38.3399ZM41.4948 40.5234C41.4948 39.5212 41.2637 38.7579 40.8588 38.1662L40.6755 37.9231L40.6647 37.9111L40.6552 37.8979C40.2104 37.3346 39.4137 36.7954 38.1207 36.3636L37.5362 36.1864C36.1276 35.7951 34.1711 35.5589 31.6301 35.506L30.5054 35.4953L19.7125 35.4953L19.7125 23.5489L30.5054 23.5489L30.5054 24.7754L20.939 24.7754L20.939 34.2688L30.5054 34.2688C33.6452 34.2688 36.0983 34.5136 37.8644 35.0042C39.6305 35.4948 40.8811 36.2065 41.617 37.1386C42.3528 38.0216 42.7213 39.1498 42.7213 40.5234L42.7081 40.9594C42.5757 43.1064 41.4518 44.8009 39.3364 46.0426L38.91 46.2738C36.7197 47.3949 33.624 47.9554 29.6227 47.9554L29.6227 46.7289C33.8036 46.7289 36.7873 46.098 38.722 44.9802C40.6488 43.8469 41.4948 42.3856 41.4948 40.5234Z" fill="#532CF9"/>
</svg>
